<svg width="106" height="108" viewBox="0 0 106 108" fill="none" xmlns="http://www.w3.org/2000/svg">
<path d="M104.312 6.73571H102.85V1.68397C102.85 0.753827 102.094 0 101.162 0H88.1087C87.1762 0 86.4208 0.754181 86.4208 1.68397V6.73589H84.5079C83.5754 6.73589 82.82 7.49007 82.82 8.41986V13.8086C82.82 14.7388 83.5758 15.4926 84.5079 15.4926H86.4208V20.5447C86.4208 21.4747 87.1766 22.2285 88.1087 22.2285C89.0412 22.2285 89.7966 21.4745 89.7966 20.5447V15.4928H99.4738V39.8545C99.4738 50.0687 91.1445 58.3784 80.9071 58.3784H73.52V48.2744H81.3572C86.0107 48.2744 89.7968 44.4972 89.7968 39.8541V29.5256C89.7968 28.5956 89.0412 27.8418 88.1089 27.8418C87.1766 27.8418 86.4212 28.5958 86.4212 29.5256V39.8541C86.4212 42.64 84.1495 44.9061 81.3573 44.9061H73.52V42.5487C73.52 41.6186 72.7644 40.8646 71.8321 40.8646H66.431C65.4985 40.8646 64.7431 41.6187 64.7431 42.5487V44.9061H64.0602H59.1404H52.2121H44.997H43.0576V42.5487C43.0576 41.6186 42.302 40.8646 41.3699 40.8646H35.9685C35.0361 40.8646 34.2805 41.6187 34.2805 42.5487V44.9061H25.5432C13.444 44.9061 3.60046 54.7267 3.60046 66.798V74.432C3.60046 75.3622 4.35604 76.116 5.28817 76.116C6.22066 76.116 6.97624 75.3618 6.97624 74.432V66.798C6.97624 56.5838 15.3056 48.2744 25.543 48.2744H34.2805V58.3784H25.0929C20.4392 58.3784 16.6531 62.1553 16.6531 66.7984V92.5074H6.97659V83.4138C6.97659 82.4838 6.22101 81.7298 5.2887 81.7298C4.35622 81.7298 3.60082 82.484 3.60082 83.4138V92.5074H1.68789C0.755402 92.5074 0 93.2614 0 94.1914V99.5801C0 100.51 0.755757 101.264 1.68789 101.264H3.60082V106.316C3.60082 107.246 4.3564 108 5.2887 108H18.3417C19.274 108 20.0296 107.246 20.0296 106.316V101.264H21.4923C22.4248 101.264 23.1802 100.51 23.1802 99.5801V94.1914C23.1802 93.2612 22.4246 92.5074 21.4923 92.5074H20.0296V66.7982C20.0296 64.0124 22.3011 61.7461 25.0935 61.7461H34.281V64.1038C34.281 65.0338 35.0366 65.7876 35.9687 65.7876H41.37C42.3025 65.7876 43.0579 65.0336 43.0579 64.1038V61.7461H64.7426V64.1038C64.7426 65.0338 65.4981 65.7876 66.4305 65.7876H71.8318C72.7643 65.7876 73.5197 65.0336 73.5197 64.1038V61.7461H80.9067C93.0059 61.7461 102.849 51.9256 102.849 39.8543V15.4926H104.312C105.245 15.4926 106 14.7386 106 13.8086V8.41986C106 7.48989 105.245 6.73571 104.312 6.73571ZM16.6538 104.632H6.97659V101.264H16.6538V104.632V104.632ZM19.8046 97.896H3.37578V95.8753H19.8046V97.896ZM39.6823 62.42H37.6568V44.2329H39.6823V62.42ZM64.7424 58.3784H43.0579V48.2742H64.7426V58.3784H64.7424ZM70.1439 62.42H68.1185V44.2329H70.1439V62.42ZM89.7964 3.36812H99.4737V6.73624H89.7964V3.36812ZM102.625 12.1247H86.1956V10.1038H102.625V12.1247ZM53.6151 4.986C43.5545 4.986 35.3694 13.1525 35.3694 23.1902C35.3694 31.0607 40.3699 37.9673 47.8402 40.4566V46.604C47.8402 47.5177 48.5853 48.2611 49.5015 48.2611H58.1683C59.0842 48.2611 59.8293 47.5179 59.8293 46.604V40.301C67.0368 37.6898 71.8616 30.8449 71.8616 23.1902C71.8616 13.1525 63.6762 4.986 53.6151 4.986ZM53.6151 8.30025C61.8446 8.30025 68.5396 14.9796 68.5396 23.1898C68.5396 31.3994 61.8446 38.0786 53.6151 38.0786C45.3859 38.0786 38.6914 31.3995 38.6914 23.1898C38.6914 14.9796 45.3859 8.30025 53.6151 8.30025ZM53.6151 41.3935C54.5692 41.3935 55.5404 41.3148 56.5076 41.1598V44.9472H51.1629V41.2282C51.9773 41.3377 52.8004 41.3935 53.6151 41.3935ZM41.2334 23.1904C41.2334 16.3783 46.7877 10.8364 53.6151 10.8364C60.4428 10.8364 65.9978 16.3781 65.9978 23.1904C65.9978 24.1042 65.2525 24.8478 64.3364 24.8478C63.4204 24.8478 62.6751 24.1044 62.6751 23.1904C62.6751 18.206 58.6109 14.1512 53.6151 14.1512C48.6196 14.1512 44.5552 18.206 44.5552 23.1904C44.5552 24.1042 43.8103 24.8478 42.8945 24.8478C41.9786 24.8476 41.2334 24.1042 41.2334 23.1904ZM55.0143 25.6895V20.6647C55.0143 19.7507 54.2692 19.0071 53.3531 19.0071C52.4375 19.0071 51.6924 19.7505 51.6924 20.6647V25.8502C49.6661 26.6329 48.3221 28.5717 48.3221 30.7522C48.3221 33.6525 50.6867 36.0123 53.5941 36.0123C56.5012 36.0123 58.8663 33.6527 58.8663 30.7522C58.8663 28.4051 57.2621 26.3196 55.0143 25.6895ZM53.5943 32.6976C52.5188 32.6976 51.6439 31.8248 51.6439 30.752C51.6439 29.6794 52.519 28.8069 53.5943 28.8069C54.6694 28.8069 55.5443 29.6794 55.5443 30.752C55.5442 31.8248 54.6694 32.6976 53.5943 32.6976Z" fill="#DA6A26"/>
</svg>
