<svg width="106" height="92" viewBox="0 0 106 92" fill="none" xmlns="http://www.w3.org/2000/svg">
<path d="M95.3985 68.9997H90.0989V38.9882H90.0902V36.0872C90.0902 35.1125 89.3015 34.3225 88.3278 34.3225C87.354 34.3225 86.5656 35.1129 86.5656 36.0872V38.9882H86.5653V68.9997V81.3844V84.9231C86.5653 86.8742 84.9806 88.4614 83.0318 88.4614C81.0831 88.4614 79.4984 86.8744 79.4984 84.9231V83.1537C79.4984 80.2274 77.1207 77.8458 74.1988 77.8458C71.2767 77.8458 68.8986 80.2272 68.8986 83.1537V84.9231C68.8986 86.8742 67.3139 88.4614 65.3655 88.4614C63.4168 88.4614 61.832 86.8744 61.832 84.9231V83.1537C61.832 80.2274 59.454 77.8458 56.5321 77.8458C53.61 77.8458 51.2319 80.2272 51.2319 83.1537V84.9231C51.2319 86.8742 49.6472 88.4614 47.6986 88.4614C45.7503 88.4614 44.1655 86.8744 44.1655 84.9231V83.1537C44.1655 80.2274 41.7875 77.8458 38.8651 77.8458C35.9432 77.8458 33.5654 80.2272 33.5654 83.1537V84.9231C33.5654 86.8742 31.9807 88.4614 30.0321 88.4614C28.0835 88.4614 26.4986 86.8744 26.4986 84.9231V83.1537C26.4986 80.2274 24.121 77.8458 21.1986 77.8458C18.2767 77.8458 15.8987 80.2272 15.8987 83.1537V84.9231C15.8987 86.8742 14.314 88.4614 12.3652 88.4614C10.4164 88.4614 8.83192 86.8744 8.83192 84.9231V81.3846V74.2425V68.9998V67.4454V64.7122C8.83192 63.7377 8.04307 62.9475 7.06963 62.9475C6.09587 62.9475 5.30734 63.738 5.30734 64.7122V67.4454H5.29845V68.9998H0V81.3846H5.29988V84.9232C5.29988 88.826 8.46924 92 12.3663 92C16.2634 92 19.433 88.8259 19.433 84.9232V83.1537C19.433 82.1768 20.2245 81.3844 21.1995 81.3844C22.1749 81.3844 22.9661 82.1767 22.9661 83.1537V84.9231C22.9661 88.8259 26.1356 91.9998 30.0329 91.9998C33.9301 91.9998 37.0993 88.8257 37.0993 84.9231V83.1537C37.0993 82.1768 37.8907 81.3844 38.8657 81.3844C39.8412 81.3844 40.6326 82.1767 40.6326 83.1537V84.9231C40.6326 88.8259 43.802 91.9998 47.6991 91.9998C51.5962 91.9998 54.7659 88.8257 54.7659 84.9231V83.1537C54.7659 82.1768 55.5569 81.3844 56.5326 81.3844C57.5076 81.3844 58.299 82.1767 58.299 83.1537V84.9231C58.299 88.8259 61.4685 91.9998 65.3658 91.9998C69.2629 91.9998 72.4322 88.8257 72.4322 84.9231V83.1537C72.4322 82.1768 73.2236 81.3844 74.199 81.3844C75.174 81.3844 75.9654 82.1767 75.9654 83.1537V84.9231C75.9654 88.8259 79.1346 91.9998 83.0318 91.9998C86.9291 91.9998 90.0986 88.8257 90.0986 84.9231V81.3846H95.3982V79.6153H105.998V70.7692H95.3982V68.9997H95.3985ZM5.29972 77.8459H3.53315V72.5383H5.29972V77.8459ZM91.8653 77.8459H90.0989V72.5383H91.8653V77.8459ZM102.465 74.3076V76.077H95.3985V74.3076H102.465ZM101.582 8.84595C99.1458 8.84595 97.1655 10.8294 97.1655 13.269V14.1536H95.3985V8.84595H90.0989V7.07679C90.0989 3.17383 86.9294 0 83.0322 0C79.1349 0 75.9657 3.17399 75.9657 7.07679V8.8461C75.9657 9.82304 75.1743 10.6153 74.1993 10.6153C73.2239 10.6153 72.4326 9.82304 72.4326 8.8461V7.07679C72.4326 3.17383 69.263 0 65.3661 0C61.4687 0 58.2993 3.17399 58.2993 7.07679V8.8461C58.2993 9.82304 57.5079 10.6153 56.5329 10.6153C55.5574 10.6153 54.7662 9.82304 54.7662 8.8461V7.07679C54.7662 3.17383 51.5967 0 47.6994 0C43.8022 0 40.6329 3.17399 40.6329 7.07679V8.8461C40.6329 9.82304 39.8416 10.6153 38.8661 10.6153C37.891 10.6153 37.0996 9.82304 37.0996 8.8461V7.07679C37.0996 3.17383 33.9303 0 30.0332 0C26.1358 0 22.9664 3.17399 22.9664 7.07679V8.8461C22.9664 9.82304 22.1752 10.6153 21.1998 10.6153C20.2248 10.6153 19.4333 9.82304 19.4333 8.8461V7.07679C19.4333 3.17383 16.2638 0 12.3667 0C8.46956 0 5.29972 3.17383 5.29972 7.07679V10.6153H0V22.9998H5.29988V50.2941H5.30829V55.2996C5.30829 56.2745 6.0973 57.0643 7.07042 57.0643C8.04418 57.0643 8.83287 56.2738 8.83287 55.2996V50.2941H8.83335V22.9997V10.6151V7.07679C8.83335 5.12547 10.4179 3.53847 12.3667 3.53847C14.3154 3.53847 15.9001 5.12531 15.9001 7.07679V8.8461C15.9001 11.7723 18.2779 14.1539 21.2 14.1539C24.1222 14.1539 26.5 11.7724 26.5 8.8461V7.07679C26.5 5.12547 28.0847 3.53847 30.0335 3.53847C31.982 3.53847 33.5668 5.12531 33.5668 7.07679V8.8461C33.5668 11.7723 35.9445 14.1539 38.8665 14.1539C41.7888 14.1539 44.1669 11.7724 44.1669 8.8461V7.07679C44.1669 5.12547 45.7516 3.53847 47.7 3.53847C49.6485 3.53847 51.2333 5.12531 51.2333 7.07679V8.8461C51.2333 11.7723 53.6115 14.1539 56.5335 14.1539C59.4553 14.1539 61.8334 11.7724 61.8334 8.8461V7.07679C61.8334 5.12547 63.4181 3.53847 65.3669 3.53847C67.3152 3.53847 68.9 5.12531 68.9 7.07679V8.8461C68.9 11.7723 71.278 14.1539 74.2002 14.1539C77.122 14.1539 79.4998 11.7724 79.4998 8.8461V7.07679C79.4998 5.12547 81.0845 3.53847 83.0333 3.53847C84.9821 3.53847 86.5667 5.12531 86.5667 7.07679V8.8461V18.6741V22.9998V24.3091V26.6749C86.5667 27.6496 87.3554 28.4396 88.3285 28.4396C89.3023 28.4396 90.0912 27.6489 90.0912 26.6749V24.3091H90.1002V22.9998H95.3998V17.6924H97.1668V18.5766C97.1668 21.0167 99.1472 22.9997 101.583 22.9997C104.019 22.9997 106 21.0166 106 18.5766V13.269C105.999 10.8294 104.018 8.84595 101.582 8.84595ZM5.29972 19.4615H3.53315V14.1537H5.29972V19.4615ZM91.8653 19.4615H90.0989V12.3846H91.8653V19.4615ZM102.465 18.5766C102.465 19.0633 102.068 19.4614 101.582 19.4614C101.096 19.4614 100.699 19.0632 100.699 18.5766V13.269C100.699 12.7824 101.096 12.3844 101.582 12.3844C102.068 12.3844 102.465 12.7826 102.465 13.269V18.5766ZM74.1993 74.3076C77.121 74.3076 79.4989 71.9262 79.4989 68.9997V22.9997C79.4989 20.0735 77.1212 17.6922 74.1993 17.6922C71.2772 17.6922 68.8991 20.0733 68.8991 22.9997V68.9997C68.8991 71.9262 71.2771 74.3076 74.1993 74.3076ZM72.4326 22.9997C72.4326 22.0232 73.2239 21.2305 74.1993 21.2305C75.1743 21.2305 75.9657 22.0232 75.9657 22.9997V68.9997C75.9657 69.9765 75.1743 70.769 74.1993 70.769C73.2239 70.769 72.4326 69.9765 72.4326 68.9997V22.9997ZM56.5328 74.3076C59.4545 74.3076 61.8326 71.9262 61.8326 68.9997V22.9997C61.8326 20.0735 59.4547 17.6922 56.5328 17.6922C53.6107 17.6922 51.2326 20.0733 51.2326 22.9997V68.9997C51.2326 71.9262 53.6107 74.3076 56.5328 74.3076ZM54.766 22.9997C54.766 22.0232 55.5571 21.2305 56.5328 21.2305C57.5078 21.2305 58.2992 22.0232 58.2992 22.9997V68.9997C58.2992 69.9765 57.5078 70.769 56.5328 70.769C55.5572 70.769 54.766 69.9765 54.766 68.9997V22.9997V22.9997ZM21.1995 74.3076C24.1218 74.3076 26.4996 71.9262 26.4996 68.9997V22.9997C26.4996 20.0735 24.1219 17.6922 21.1995 17.6922C18.2776 17.6922 15.8996 20.0733 15.8996 22.9997V68.9997C15.8996 71.9262 18.2776 74.3076 21.1995 74.3076ZM19.433 22.9997C19.433 22.0232 20.2245 21.2305 21.1995 21.2305C22.1749 21.2305 22.9661 22.0232 22.9661 22.9997V68.9997C22.9661 69.9765 22.1749 70.769 21.1995 70.769C20.2245 70.769 19.433 69.9765 19.433 68.9997V22.9997ZM38.8659 74.3076C41.7881 74.3076 44.1663 71.9262 44.1663 68.9997V22.9997C44.1663 20.0735 41.7883 17.6922 38.8659 17.6922C35.944 17.6922 33.5662 20.0733 33.5662 22.9997V68.9997C33.5662 71.9262 35.944 74.3076 38.8659 74.3076ZM37.0995 22.9997C37.0995 22.0232 37.8909 21.2305 38.8659 21.2305C39.8414 21.2305 40.6328 22.0232 40.6328 22.9997V68.9997C40.6328 69.9765 39.8414 70.769 38.8659 70.769C37.8909 70.769 37.0995 69.9765 37.0995 68.9997V22.9997V22.9997Z" fill="#DA6A26"/>
</svg>
