<svg width="101" height="108" viewBox="0 0 101 108" fill="none" xmlns="http://www.w3.org/2000/svg">
<path d="M96.0472 34.5066C93.057 29.55 88.8678 25.4272 83.9187 22.5665V18.4086C83.9187 15.3423 81.4139 12.8477 78.3351 12.8477H74.1652V9.42723C74.1652 4.22915 69.9186 0 64.6994 0H58.752H54.3984H51.6188C50.7496 0 50.0452 0.701458 50.0452 1.56682C50.0452 2.4327 50.7503 3.13398 51.6188 3.13398H54.3984V3.16816H64.6994C68.1646 3.16816 70.9838 5.97608 70.9838 9.42706V12.8475H66.4007V9.42723C66.4007 8.49282 65.6376 7.73261 64.6992 7.73261H9.46566C8.52744 7.73261 7.76395 8.49265 7.76395 9.42723V24.081H3.18107V9.42723C3.18107 5.97608 6.00044 3.16833 9.46566 3.16833H40.4826V3.13451H43.2265C44.0956 3.13451 44.7999 2.43322 44.7999 1.56751C44.7999 0.701633 44.0952 0.000523131 43.2265 0.000523131H40.4826V0H9.46566C4.24639 0 0 4.22915 0 9.42723V105.725C0 106.598 0.713421 107.309 1.59054 107.309H9.35466C10.2318 107.309 10.9454 106.598 10.9454 105.725V84.2979H10.9396V83.0776C10.9396 82.212 10.2355 81.5106 9.36622 81.5106C8.49681 81.5106 7.79284 82.2124 7.79284 83.0776V84.2979H7.7643V99.968H3.18107V84.2979V80.6022V77.4338V73.8141V27.2491H7.76413V73.8141H7.79231V74.7195C7.79231 75.5851 8.49663 76.2865 9.36552 76.2865C10.2349 76.2865 10.9391 75.5845 10.9391 74.7195V73.8141H10.9452V10.9009H63.2196V12.8477H55.708C52.6291 12.8477 50.124 15.3423 50.124 18.4086V22.5499C39.3054 28.5727 32.5989 39.9378 32.5989 52.2868C32.5989 56.8296 33.4944 61.2534 35.2609 65.4374V102.439C35.2609 105.505 37.7658 108 40.8447 108H41.2885C44.3673 108 46.8721 105.505 46.8721 102.439V79.9584C51.065 82.963 55.9175 84.9917 60.994 85.8581V102.439C60.994 105.505 63.4991 108 66.5779 108H67.0214C70.1002 108 72.605 105.505 72.605 102.439V85.8581C77.6817 84.9917 82.5342 82.963 86.727 79.9584V102.439C86.727 105.505 89.2318 108 92.3106 108H92.7544C95.8333 108 98.338 105.505 98.338 102.439V65.4374C100.105 61.2534 101 56.8296 101 52.2868C101 46.0251 99.2874 39.8768 96.0472 34.5066ZM7.76413 103.136V104.141H3.18107V103.136H7.76413ZM53.3056 18.4086C53.3056 17.0894 54.3834 16.016 55.7082 16.016H78.3353C79.1672 16.016 79.9242 16.4472 80.3579 17.1206H62.5848C61.7077 17.1206 60.9941 17.8311 60.9941 18.7047C60.9941 19.5782 61.7077 20.2889 62.5848 20.2889H80.7378V22.423H53.3056V18.4086ZM43.691 102.439C43.691 103.758 42.6134 104.832 41.2886 104.832H40.8448C39.5202 104.832 38.4425 103.758 38.4425 102.439V71.2982C39.9457 73.5194 41.7055 75.5582 43.691 77.3768V102.439ZM69.4239 102.439C69.4239 103.758 68.3461 104.832 67.0214 104.832H66.5779C65.2533 104.832 64.1754 103.758 64.1754 102.439V75.485C64.1754 74.1658 65.2531 73.0922 66.5779 73.0922H67.0214C68.346 73.0922 69.4239 74.1656 69.4239 75.485V102.439ZM95.1568 102.439C95.1568 103.758 94.079 104.832 92.7543 104.832H92.3104C90.9858 104.832 89.9079 103.758 89.9079 102.439V77.3766C91.8936 75.5579 93.6532 73.5194 95.1566 71.298V102.439H95.1568ZM96.8382 59.9819H65.0915C64.2144 59.9819 63.5008 60.6926 63.5008 61.5662C63.5008 62.4397 64.2144 63.1503 65.0915 63.1503H95.8301C92.0086 73.25 83.2054 80.6396 72.605 82.6375V75.485C72.605 72.4186 70.1002 69.9239 67.0214 69.9239H66.5779C63.4991 69.9239 60.994 72.4186 60.994 75.485V82.6371C46.5888 79.9115 35.7991 66.9937 35.7803 52.3245H74.5637C75.4408 52.3245 76.1544 51.6138 76.1544 50.7402C76.1544 49.8667 75.4408 49.1561 74.5637 49.1561H35.9417C36.1441 47.1532 36.5407 45.1763 37.1231 43.2662H49.4966C50.3737 43.2662 51.0871 42.5555 51.0871 41.6819C51.0871 40.8084 50.3737 40.0979 49.4966 40.0979H38.284C40.9065 34.01 45.4944 28.8655 51.2865 25.5315C51.4257 25.5714 51.5693 25.5915 51.7153 25.5915H82.3283C82.4633 25.5915 82.5967 25.5739 82.727 25.5392C92.0424 31.1053 97.8188 41.3308 97.8188 52.2868C97.8188 54.885 97.4893 57.4715 96.8382 59.9819Z" fill="#DA6A26"/>
</svg>
