<svg width="200" height="52" viewBox="0 0 200 52" fill="none" xmlns="http://www.w3.org/2000/svg">
<path d="M0 30.699V50.2297H7.63636V40.4953H16V35.8228H7.63636V31.5396H17.4545V25.699H5C2.23858 25.699 0 27.9375 0 30.699Z" fill="#F3F4F5"/>
<path d="M26.9091 25.699H19.6364V50.6191H26.9091V25.699Z" fill="#F3F4F5"/>
<path d="M63.2727 24.9202H56V49.8403H63.2727V24.9202Z" fill="#F3F4F5"/>
<path d="M30.5455 27.3095V49.8403H37.8182L37.4546 36.6015L44.5137 48.8396C44.8709 49.4588 45.5313 49.8403 46.2462 49.8403H50.3637C51.4682 49.8403 52.3637 48.9449 52.3637 47.8403V24.9202H45.0909V37.7696L38.0398 26.2645C37.6762 25.6712 37.0304 25.3095 36.3346 25.3095H32.5455C31.4409 25.3095 30.5455 26.205 30.5455 27.3095Z" fill="#F3F4F5"/>
<path d="M73.08 24.9202H84V31.1502H74.7923C74.2543 31.1502 73.8182 31.5863 73.8182 32.1243C73.8182 32.4835 74.0159 32.8135 74.3325 32.9831L78.8509 35.4022C82.0211 37.0995 84 40.4037 84 43.9996C84 47.2253 81.3851 49.8403 78.1593 49.8403H66.1818V43.2209H76.3518C76.76 43.2209 77.0909 42.89 77.0909 42.4818C77.0909 42.2165 76.9487 41.9716 76.7184 41.84L69.6591 37.8085C67.5089 36.5806 66.1818 34.2945 66.1818 31.8184C66.1818 28.0086 69.2703 24.9202 73.08 24.9202Z" fill="#F3F4F5"/>
<path fill-rule="evenodd" clip-rule="evenodd" d="M141.549 50.6191H134.545V25.699H149.603C151.73 25.699 153.455 27.4235 153.455 29.5508V37.9644C153.455 40.2223 151.624 42.0528 149.366 42.0528H141.549V50.6191ZM141.091 31.1503V36.6015H144.909C146.014 36.6015 146.909 35.7061 146.909 34.6015V33.1503C146.909 32.0457 146.014 31.1503 144.909 31.1503H141.091Z" fill="#F3F4F5"/>
<path fill-rule="evenodd" clip-rule="evenodd" d="M189.091 25.699C183.066 25.699 178.182 30.5831 178.182 36.6081V40.4888C178.182 46.5137 183.066 51.3979 189.091 51.3979C195.116 51.3979 200 46.5137 200 40.4888V36.6081C200 30.5831 195.116 25.699 189.091 25.699ZM189.091 32.3073C187.484 32.3073 186.182 33.6097 186.182 35.2164V42.6147C186.182 44.2214 187.484 45.5238 189.091 45.5238C190.698 45.5238 192 44.2214 192 42.6147V35.2164C192 33.6097 190.698 32.3073 189.091 32.3073Z" fill="#F3F4F5"/>
<path d="M105.265 0C105.265 0 101.702 10.6534 105.265 15.0689C108.829 19.4844 111.084 21.7039 111.273 27.7314C111.273 27.7314 95.5054 25.9247 92.88 37.9798C92.88 37.9798 90.2472 49.6611 98.32 47.029C98.32 47.029 102.64 45.4169 103.2 41.3986H99.2582C99.2582 41.3986 99.2218 36.7806 101.869 36.3756L104.516 35.9706C104.516 35.9706 111.062 34.3664 108.269 41.8035L106.393 47.4105L106.953 51.0473H103.2L101.869 48.8357C101.869 48.8357 95.1272 54.2869 89.3091 50.0427C89.3091 50.0427 86.1236 47.029 86.4945 41.1961L87.6218 36.6014C87.6218 36.6014 82.9091 32.1548 84.8072 23.7131L88.9382 13.6671C88.9382 13.6671 88.9382 24.9201 92.88 25.1226C96.8218 25.3251 98.88 24.7177 98.6982 17.483C98.5163 10.2484 98.9091 3.41873 105.265 0Z" fill="#DA6A26"/>
<path d="M132.218 24.0635C130.308 21.0215 129.08 17.5487 128.628 13.9153C128.177 10.2819 128.514 6.5859 129.615 3.11499C129.615 3.11499 113.004 16.7588 111.455 26.6256C109.905 36.4924 110.255 46.6785 113.142 48.859C116.029 51.0395 124.124 53.2278 128.909 45.744C133.695 38.2602 136.371 33.4864 132.218 24.0635ZM127.855 37.4269C125.411 42.6056 120.975 45.487 117.949 43.8516C114.924 42.2162 114.458 36.6871 116.902 31.5006C117.779 29.6013 119.018 27.9195 120.538 26.5633C122.647 24.7488 124.989 24.0868 126.822 25.0759C129.862 26.7112 130.327 32.2404 127.884 37.4269H127.855Z" fill="#009ACB"/>
<path fill-rule="evenodd" clip-rule="evenodd" d="M155.636 25.699V50.6191H163.273V41.6634H166.545C167.273 43.6103 168.727 48.1271 168.727 50.6191H176.727C176.364 47.3743 174.909 40.5732 172 39.3272C173.333 38.6782 176 36.7573 176 34.2653C176.485 31.4098 175.855 25.699 169.455 25.699H155.636ZM162.909 31.1503V35.8228H166.727C167.832 35.8228 168.727 34.9274 168.727 33.8228V33.1503C168.727 32.0457 167.832 31.1503 166.727 31.1503H162.909Z" fill="#F3F4F5"/>
</svg>
