<svg width="100" height="115" viewBox="0 0 100 115" fill="none" xmlns="http://www.w3.org/2000/svg">
<path d="M98.2101 28.6397H77.9426C76.5401 26.9811 74.8748 25.627 73.0311 24.6082V12.6493H76.0458C77.5046 15.2121 80.2594 16.9452 83.4126 16.9452C88.0847 16.9452 91.8854 13.1445 91.8854 8.47248C91.8854 3.80069 88.0844 0 83.4126 0C80.459 0 77.8545 1.52031 76.3377 3.81851H52.7788C51.262 1.52031 48.6579 0 45.7041 0C41.0323 0 37.2316 3.80069 37.2316 8.47248C37.2316 13.1445 41.0323 16.9452 45.7041 16.9452C48.8578 16.9452 51.6128 15.2121 53.0712 12.6493H56.0859V24.6082C54.2428 25.6272 52.5766 26.9809 51.1744 28.6397H45.2267C44.2382 28.6397 43.4369 29.4408 43.4369 30.4297C43.4369 31.4186 44.2382 32.2196 45.2267 32.2196H52.0322C52.5903 32.2196 53.1162 31.9592 53.4552 31.5156C56.1235 28.0193 60.1706 26.0143 64.5584 26.0143C68.9462 26.0143 72.994 28.0191 75.6617 31.5156C76.0006 31.9592 76.527 32.2196 77.0846 32.2196H96.4197V47.7326H77.085C76.527 47.7326 76.0006 47.9929 75.6621 48.4364C72.9938 51.933 68.9466 53.938 64.5588 53.938C60.1704 53.938 56.1233 51.933 53.4552 48.4364C53.1166 47.9929 52.5903 47.7326 52.0322 47.7326H27.0884C26.0999 47.7326 25.2985 48.5337 25.2985 49.5226V55.3698H9.78515V39.9761C9.78515 35.6989 13.2649 32.2194 17.5418 32.2194H35.6802C36.6689 32.2194 37.47 31.4182 37.47 30.4293C37.47 29.4404 36.6689 28.6395 35.6802 28.6395H17.5418C11.291 28.6395 6.20524 33.7251 6.20524 39.9761V55.3698H1.78967C0.801142 55.3698 0 56.1709 0 57.1596V65.2742C0 66.2629 0.801142 67.0641 1.78967 67.0641H31.8615C32.8502 67.0641 33.6513 66.2629 33.6513 65.2742V57.1596C33.6513 56.1709 32.8502 55.3698 31.8615 55.3698H28.8781V51.3123H51.1744C54.5182 55.2672 59.3464 57.5177 64.5584 57.5177C69.7704 57.5177 74.5985 55.2672 77.9424 51.3123H98.2099C99.1987 51.3123 100 50.5111 100 49.5226V30.4293C99.9998 29.4408 99.1985 28.6397 98.2101 28.6397ZM83.4127 3.5801C86.1107 3.5801 88.3055 5.77494 88.3055 8.47248C88.3055 11.1704 86.1107 13.3652 83.4127 13.3652C80.7148 13.3652 78.5204 11.1704 78.5204 8.47248C78.5204 5.77494 80.7148 3.5801 83.4127 3.5801ZM45.7039 13.3652C43.006 13.3652 40.8113 11.1704 40.8113 8.47248C40.8113 5.77494 43.0062 3.5801 45.7039 3.5801C48.4018 3.5801 50.5965 5.77494 50.5965 8.47248C50.5967 11.1704 48.4018 13.3652 45.7039 13.3652ZM54.1533 9.06936C54.1672 8.87184 54.1768 8.67338 54.1768 8.47248C54.1768 8.10877 54.1507 7.7505 54.1061 7.3986H75.0106C74.966 7.7505 74.9403 8.10859 74.9403 8.47248C74.9403 8.67319 74.9498 8.87184 74.9637 9.06936H54.1533ZM69.451 23.1239C67.8844 22.6726 66.2421 22.4344 64.5586 22.4344C62.8747 22.4344 61.2325 22.6726 59.6659 23.1239V12.6493H69.451V23.1239ZM30.0716 58.9501V63.4845H3.57991V58.9501H30.0716Z" fill="#DA6A26"/>
<path d="M28.3784 84.4309C32.2479 91.1718 34.1287 95.9915 34.128 99.1649C34.128 107.784 27.1152 114.797 18.4957 114.797C9.87595 114.797 2.86319 107.785 2.86319 99.1649C2.86319 91.1698 15.595 73.3848 17.0463 71.384C17.7491 70.4147 19.2417 70.4147 19.9443 71.384C20.0351 71.5093 22.2028 74.5036 24.8442 78.6282C25.3775 79.4607 25.135 80.5679 24.3023 81.101C23.4702 81.6341 22.3628 81.3916 21.8297 80.5589C20.544 78.5515 19.36 76.7991 18.4916 75.5409C14.1426 81.8245 6.4431 94.0174 6.4431 99.1649C6.4431 105.811 11.8496 111.217 18.4957 111.217C25.1417 111.217 30.5483 105.811 30.5483 99.1649C30.5483 97.7599 29.863 94.2089 25.2732 86.2127C24.7812 85.3553 25.077 84.2615 25.9346 83.7693C26.7924 83.2778 27.8864 83.5731 28.3784 84.4309ZM18.4961 105.489C17.5075 105.489 16.7062 106.291 16.7062 107.279C16.7062 108.268 17.5075 109.069 18.4961 109.069C23.9574 109.069 28.4007 104.626 28.4007 99.1645C28.4007 98.4166 28.0409 95.3488 23.4106 87.2821C22.9184 86.4243 21.8244 86.129 20.9672 86.6207C20.1096 87.113 19.8136 88.2068 20.3058 89.0642C24.6553 96.6416 24.8163 99.0872 24.8208 99.1649C24.8208 102.652 21.9835 105.489 18.4961 105.489Z" fill="#DA6A26"/>
</svg>
